<svg width="558" height="243" viewBox="0 0 558 243" fill="none" xmlns="http://www.w3.org/2000/svg">
<path d="M90.9086 242.043H89.8921C27.6861 239.772 -0.699608 215.689 0.473353 166.232C0.590649 161.454 4.57872 157.578 9.38785 157.578H52.2009C56.7755 157.578 60.6071 161.063 61.0763 165.684C62.3666 178.606 72.9623 183.892 97.6336 183.892C133.995 183.892 138.179 173.633 138.179 165.919C138.179 151.9 138.179 145.634 97.0471 145.008C92.238 144.93 88.289 140.935 88.289 136.119V107.455C88.289 102.599 92.0816 98.7224 96.9298 98.5658C125.12 97.7043 128.209 90.8124 128.209 76.3629C128.209 62.7749 120.311 58.3891 95.6396 58.3891C80.9385 58.3891 72.845 60.2687 68.5442 64.7328C65.4554 67.9438 64.126 72.7211 64.3997 79.7697C64.4779 82.2367 63.6177 84.547 61.8974 86.3092C60.2162 88.0713 57.9484 89.0503 55.5243 89.0503H12.9849C8.21489 89.0503 4.30502 85.3302 4.10953 80.5528C2.89747 54.6299 8.21489 35.7554 20.4137 22.9506C35.2712 7.32632 60.4507 0.0428207 99.6276 0.0428207C163.515 0.0428207 190.767 20.9535 190.767 69.98C190.767 90.0292 185.058 105.066 173.29 115.874C173.094 116.031 173.094 116.226 173.094 116.344C173.094 116.461 173.133 116.657 173.329 116.775C181.578 122.609 187.834 130.049 192.018 138.977V13.0043C192.018 7.13052 193.425 0.395248 204.256 0.395248H293.166C333.633 0.395248 350.68 9.3234 365.03 23.6946C366.242 24.8694 367.415 26.1616 368.588 27.493V12.6127C368.588 7.20884 369.878 0.00366211 381.177 0.00366211H544.923C556.183 0.00366211 557.512 7.16968 557.512 12.6127V41.9425C557.512 47.3464 556.222 54.5516 544.923 54.5516H493.273V224.656C493.273 235.934 486.079 237.265 480.683 237.265H445.768C440.373 237.265 433.179 235.973 433.179 224.656V54.5516H382.663C385.009 62.814 386.221 71.6247 386.221 80.827C386.221 119.594 358.656 144.146 338.482 152.291L386.534 222.268C388.762 225.753 389.114 229.786 387.433 232.88C385.908 235.66 382.976 237.265 379.34 237.265H337.7C331.014 237.265 326.4 235.386 322.256 230.961L259.893 140.348C257.391 136.706 253.442 134.513 249.024 134.357C244.762 134.318 240.5 136.08 237.724 139.526L181.735 209.424C177.942 214.162 170.983 214.945 166.252 211.225L146.702 195.875C143.457 193.33 138.883 193.643 135.989 196.541L91.0259 242.004L90.9086 242.043ZM9.38785 162.277C7.12013 162.277 5.24339 164.117 5.1652 166.349C4.03133 212.4 30.6966 234.955 88.9928 237.305L132.51 193.29C137.084 188.67 144.357 188.239 149.439 192.233L168.989 207.583C171.726 209.737 175.753 209.267 177.942 206.565L191.979 189.022L195.732 171.244L192.018 153.936C189.007 139.839 181.774 128.64 170.553 120.69C169.262 119.751 168.441 118.302 168.324 116.696C168.207 115.091 168.832 113.564 170.005 112.467C180.757 102.599 185.958 88.6978 185.958 70.0192C185.958 23.6554 160.895 4.74185 99.5103 4.74185C61.7019 4.74185 37.6171 11.5554 23.698 26.1616C12.4376 37.9875 7.51112 55.6872 8.68408 80.2787C8.80137 82.5499 10.639 84.3121 12.8676 84.3121H55.407C56.5409 84.3121 57.6356 83.8422 58.4176 83.0198C59.2387 82.1975 59.6297 81.0619 59.5906 79.8872C59.2778 71.6247 61.0763 65.5551 65.0644 61.4435C70.3818 55.9221 79.2181 53.6509 95.5223 53.6509C119.138 53.6509 132.783 57.371 132.783 76.3237C132.783 95.2765 124.064 102.364 96.9689 103.226C94.6621 103.304 92.8636 105.144 92.8636 107.416V136.08C92.8636 138.351 94.7012 140.27 97.008 140.309C140.799 140.975 142.753 149.002 142.753 165.605C142.753 186.203 116.948 188.552 97.5163 188.552C78.0843 188.552 58.3003 185.889 56.3063 166.153C56.0717 163.921 54.2732 162.238 52.1227 162.238H9.38785V162.277ZM376.134 49.5393L379.652 49.8134C380.122 49.8134 380.63 49.8917 381.177 49.8917H437.87V224.696C437.87 231.392 440.529 232.606 445.768 232.606H480.683C485.923 232.606 488.581 231.392 488.581 224.696V49.8525H544.923C551.609 49.8525 552.821 47.1897 552.821 41.9425V12.6519C552.821 7.40463 551.609 4.74185 544.923 4.74185H381.177C374.491 4.74185 373.279 7.40463 373.279 12.6519V42.1774L368.979 35.7946C366.75 32.5053 364.326 29.5684 361.745 27.0231C347.865 13.1218 332.187 5.05512 293.166 5.05512H204.256C197.804 5.05512 196.71 7.48295 196.71 12.9652V175.512L196.631 175.082V183.187L234.01 136.589C237.724 131.968 243.276 129.501 249.141 129.658C255.045 129.893 260.362 132.79 263.725 137.685L325.853 228.024C328.902 231.235 332.265 232.566 337.66 232.566H379.301C380.63 232.566 382.428 232.214 383.289 230.648C384.149 229.081 383.875 226.849 382.624 224.891L331.131 149.942L334.063 148.963C357.053 141.17 381.529 114.621 381.529 80.8661C381.529 70.9982 380.083 61.5609 377.228 52.9069L376.134 49.5784V49.5393ZM297.115 113.681C294.378 113.681 291.72 112.467 289.921 110.196L260.753 73.7393C259.463 72.0946 258.72 70.0584 258.72 67.9438V56.0004C258.72 50.9098 262.865 46.759 267.948 46.759H296.646C299.461 46.759 302.12 48.0512 303.879 50.2441L314.24 63.2839C315.531 64.9286 316.234 66.9648 316.234 69.0402V98.7224C316.234 102.012 314.475 105.105 311.582 106.75L301.69 112.467C300.243 113.289 298.64 113.72 297.076 113.72L297.115 113.681ZM267.987 51.4189C265.484 51.4189 263.412 53.4551 263.412 56.0004V67.9438C263.412 68.9619 263.764 69.98 264.429 70.8024L293.596 107.259C295.004 109.021 297.467 109.491 299.422 108.355L309.314 102.638C310.721 101.816 311.582 100.328 311.582 98.6833V69.0011C311.582 67.983 311.23 66.9648 310.604 66.1817L300.243 53.1419C299.383 52.0454 298.093 51.4189 296.685 51.4189H267.987Z" fill="url(#paint0_linear_2058_32)"/>
<defs>
<linearGradient id="paint0_linear_2058_32" x1="278.975" y1="0.00366211" x2="278.975" y2="242.043" gradientUnits="userSpaceOnUse">
<stop stop-color="#B57D2D"/>
<stop offset="1" stop-color="#D9D9D9" stop-opacity="0.04"/>
</linearGradient>
</defs>
</svg>
