<svg width="25" height="25" viewBox="0 0 25 25" fill="none" xmlns="http://www.w3.org/2000/svg">
<g clip-path="url(#clip0_159_1119)">
<path d="M12.5007 24.594C19.1696 24.594 24.6094 19.1611 24.6094 12.4993C24.6094 5.83739 19.1696 0.405945 12.5007 0.405945C5.83189 0.405945 0.390625 5.83886 0.390625 12.4993C0.390625 19.1597 5.83042 24.594 12.5007 24.594Z" fill="#C4851C"/>
<path d="M12.5007 0.405945C5.83042 0.405945 0.390625 5.83886 0.390625 12.4993C0.390625 19.1597 5.83042 24.594 12.5007 24.594C19.171 24.594 24.6094 19.1611 24.6094 12.4993C24.6094 5.83739 19.1695 0.405945 12.5007 0.405945ZM12.5007 21.7323C7.40855 21.7323 3.25596 17.5849 3.25596 12.4992C3.25596 7.41346 7.40855 3.26615 12.5007 3.26615C17.5929 3.26615 21.7455 7.41493 21.7455 12.4992C21.7455 17.5835 17.5915 21.7323 12.5007 21.7323Z" fill="#DDA039"/>
<path d="M18.5663 10.4913C18.5327 10.3879 18.4446 10.3115 18.3374 10.293L14.551 9.64059L12.7595 6.24542C12.7087 6.14933 12.609 6.08917 12.5003 6.08917C12.3916 6.08917 12.2919 6.14933 12.2412 6.24542L10.4496 9.64059L6.66316 10.293C6.55598 10.3115 6.46785 10.3878 6.43426 10.4913C6.40066 10.5947 6.42713 10.7082 6.50301 10.7861L9.18186 13.5372L8.63372 17.3354C8.61819 17.443 8.6635 17.5504 8.75144 17.6142C8.80242 17.6513 8.86287 17.6702 8.92371 17.6702C8.96775 17.6702 9.01199 17.6603 9.05296 17.6401L12.5003 15.9445L15.9475 17.6401C16.0452 17.688 16.1612 17.6781 16.2491 17.6142C16.337 17.5503 16.3824 17.4429 16.3668 17.3354L15.8187 13.5372L18.4975 10.7861C18.5734 10.7082 18.5999 10.5946 18.5663 10.4912L18.5663 10.4913Z" fill="#DFB03C"/>
<path d="M3.94531 3.95433L5.96943 5.97587C7.64409 4.30331 9.95513 3.2662 12.5011 3.2662V0.405945C9.16631 0.405945 6.13901 1.7639 3.94531 3.95433Z" fill="#DFB03C"/>
<path d="M21.0568 21.0442L19.0327 19.0226C17.3578 20.6953 15.0465 21.7323 12.501 21.7323V24.594C15.8357 24.594 18.8631 23.2355 21.0567 21.0442L21.0568 21.0442Z" fill="#DFB03C"/>
<path d="M21.056 3.95496L19.0322 5.97615C20.7071 7.64885 21.7456 9.95711 21.7456 12.4992H24.6095C24.6095 9.16907 23.2495 6.14573 21.056 3.95496Z" fill="#DFB03C"/>
<path d="M3.94429 21.0448L5.96875 19.0229C4.29409 17.3503 3.25591 15.0421 3.25591 12.4992H0.390625C0.390625 15.8301 1.75059 18.8538 3.94429 21.0448Z" fill="#DFB03C"/>
</g>
<defs>
<clipPath id="clip0_159_1119">
<rect width="25" height="25" fill="white"/>
</clipPath>
</defs>
</svg>
