<svg width="34" height="34" viewBox="0 0 34 34" fill="none" xmlns="http://www.w3.org/2000/svg">
<path d="M22.3121 7.4375H11.6871C11.4054 7.43778 11.1353 7.54981 10.9361 7.74901C10.7369 7.94821 10.6249 8.21829 10.6246 8.5V13.1085L6.8986 18.2316C6.57479 18.6784 6.35378 19.1913 6.2514 19.7336L4.8299 27.3137C4.81686 27.3842 4.78959 27.4513 4.74974 27.5109L1.68262 32.1116L2.56662 32.7009L5.63376 28.1002C5.753 27.9216 5.8348 27.7207 5.87422 27.5096L7.29573 19.9292C7.36881 19.5419 7.52666 19.1756 7.75798 18.8566L10.6246 14.9149V21.25C10.6247 21.3549 10.6557 21.4574 10.7139 21.5447L11.7764 23.1384C11.8168 23.1992 11.8694 23.251 11.9308 23.2905C11.9922 23.3301 12.0611 23.3565 12.1332 23.3682C12.2053 23.3799 12.279 23.3767 12.3498 23.3586C12.4205 23.3405 12.4868 23.308 12.5444 23.2632L16.2245 20.401C16.3125 20.3325 16.4133 20.2822 16.5209 20.2531C16.6286 20.2239 16.7409 20.2166 16.8515 20.2313C16.962 20.2461 17.0685 20.2828 17.1647 20.3392C17.2609 20.3955 17.3449 20.4705 17.4118 20.5597C17.5387 20.7352 17.5945 20.9521 17.5681 21.167C17.5416 21.3819 17.4348 21.5788 17.2691 21.7182L13.9618 25.1304C13.9168 25.1769 13.8807 25.2312 13.8552 25.2907L12.5237 28.3975C12.3857 28.7188 12.1709 29.0012 11.898 29.2198L9.76161 30.929C9.68157 30.9929 9.62174 31.0785 9.58937 31.1757L9.05812 32.7694L10.0661 33.1056L10.5479 31.6605L12.5616 30.0496C12.9708 29.7217 13.2931 29.2981 13.5001 28.8162L14.4661 26.5625H22.3121C22.5938 26.5622 22.8639 26.4502 23.0631 26.251C23.2623 26.0518 23.3743 25.7817 23.3746 25.5V8.5C23.3743 8.21829 23.2623 7.94821 23.0631 7.74901C22.8639 7.54981 22.5938 7.43778 22.3121 7.4375ZM22.3121 10.0938C21.8896 10.0933 21.4845 9.92523 21.1857 9.62644C20.8869 9.32766 20.7188 8.92255 20.7184 8.5H22.3121V10.0938ZM11.6871 8.5H13.2809C13.2804 8.92255 13.1123 9.32766 12.8136 9.62644C12.5148 9.92523 12.1097 10.0933 11.6871 10.0938V8.5ZM16.9926 19.1782C16.7422 19.1437 16.4875 19.16 16.2435 19.2259C15.9996 19.2919 15.7713 19.4062 15.5724 19.5621L15.3613 19.7262C14.7474 19.3586 14.275 18.7951 14.0202 18.1264C13.7653 17.4577 13.7429 16.7227 13.9565 16.0397C14.1701 15.3567 14.6072 14.7654 15.1976 14.361C15.788 13.9566 16.4973 13.7626 17.2113 13.8103C17.9254 13.8579 18.6026 14.1444 19.134 14.6236C19.6655 15.1028 20.0203 15.7469 20.1412 16.4522C20.2622 17.1575 20.1424 17.883 19.801 18.512C19.4596 19.1409 18.9166 19.6367 18.2592 19.9195C18.1083 19.7177 17.9184 19.5481 17.7009 19.4207C17.4834 19.2934 17.2425 19.2109 16.9926 19.1782ZM18.0038 22.485C18.2227 22.2887 18.3933 22.0445 18.5023 21.7714C18.6113 21.4983 18.6557 21.2037 18.6321 20.9106C19.499 20.5499 20.2219 19.9122 20.6881 19.0972C21.1543 18.2823 21.3375 17.3358 21.2091 16.4057C21.0806 15.4756 20.6478 14.6143 19.9781 13.9562C19.3085 13.298 18.4398 12.8802 17.5076 12.7679C16.5754 12.6556 15.6323 12.8552 14.8255 13.3354C14.0187 13.8157 13.3937 14.5496 13.0481 15.4226C12.7024 16.2956 12.6556 17.2584 12.9149 18.1608C13.1742 19.0632 13.7251 19.8543 14.4814 20.4106L12.3434 22.0736L11.6871 21.0892V11.1562C12.3913 11.1554 13.0665 10.8753 13.5645 10.3773C14.0624 9.87937 14.3425 9.20423 14.3434 8.5H19.6559C19.6567 9.20423 19.9368 9.87937 20.4348 10.3773C20.9327 10.8753 21.6079 11.1554 22.3121 11.1562V22.8438C21.6079 22.8446 20.9327 23.1247 20.4348 23.6227C19.9368 24.1206 19.6567 24.7958 19.6559 25.5H15.0829L18.0038 22.485ZM22.3121 25.5H20.7184C20.7188 25.0775 20.8869 24.6723 21.1857 24.3736C21.4845 24.0748 21.8896 23.9067 22.3121 23.9062V25.5Z" fill="white"/>
<path d="M17.7982 17.3984V18.4609C18.0732 18.4519 18.3386 18.3576 18.5576 18.191C18.7767 18.0244 18.9385 17.7939 19.0207 17.5312H19.6562V16.4688H19.0207C18.9385 16.2061 18.7767 15.9756 18.5576 15.809C18.3386 15.6424 18.0732 15.5481 17.7982 15.5391C17.4305 15.5597 17.0858 15.7248 16.8394 15.9985C16.5929 16.2722 16.4646 16.6322 16.4825 17C16.4825 17.228 16.3489 17.3984 16.2293 17.3984C16.1097 17.3984 15.9761 17.228 15.9761 17C15.9761 16.772 16.1097 16.6016 16.2293 16.6016V15.5391C15.9543 15.5481 15.6889 15.6424 15.4699 15.809C15.2508 15.9756 15.089 16.2061 15.0068 16.4688H14.3438V17.5312H15.0068C15.089 17.7939 15.2508 18.0244 15.4699 18.191C15.6889 18.3576 15.9543 18.4519 16.2293 18.4609C16.597 18.4403 16.9417 18.2752 17.1881 18.0015C17.4346 17.7278 17.5629 17.3678 17.545 17C17.545 16.772 17.6786 16.6016 17.7982 16.6016C17.9178 16.6016 18.0513 16.772 18.0513 17C18.0513 17.228 17.9178 17.3984 17.7982 17.3984Z" fill="white"/>
<path d="M22.8434 29.2188C22.28 29.2194 21.7399 29.4435 21.3415 29.8419C20.9432 30.2402 20.7191 30.7804 20.7184 31.3438C20.7184 31.3613 20.7232 31.3776 20.7236 31.3951C17.9756 32.1006 15.084 32.0138 12.3832 31.1448L12.0537 32.1549C14.9554 33.1002 18.0678 33.1911 21.0198 32.4168C21.2085 32.737 21.478 33.0021 21.8014 33.1853C22.1248 33.3686 22.4907 33.4637 22.8624 33.461C23.2341 33.4584 23.5986 33.3581 23.9193 33.1703C24.24 32.9824 24.5058 32.7136 24.6899 32.3907C24.874 32.0678 24.9701 31.7022 24.9684 31.3304C24.9668 30.9587 24.8675 30.594 24.6805 30.2728C24.4935 29.9515 24.2253 29.6851 23.9029 29.5001C23.5805 29.3151 23.2151 29.2181 22.8434 29.2188ZM22.8434 32.4063C22.6333 32.4063 22.4279 32.3439 22.2531 32.2272C22.0784 32.1104 21.9422 31.9445 21.8618 31.7504C21.7814 31.5562 21.7603 31.3426 21.8013 31.1365C21.8423 30.9304 21.9435 30.741 22.0921 30.5925C22.2407 30.4439 22.43 30.3427 22.6361 30.3017C22.8423 30.2607 23.0559 30.2817 23.25 30.3621C23.4442 30.4425 23.6101 30.5787 23.7269 30.7535C23.8436 30.9282 23.9059 31.1336 23.9059 31.3438C23.9056 31.6255 23.7936 31.8955 23.5944 32.0947C23.3952 32.2939 23.1251 32.406 22.8434 32.4063Z" fill="white"/>
<path d="M11.1563 4.78116C11.7196 4.78052 12.2598 4.55643 12.6581 4.15806C13.0565 3.75968 13.2806 3.21955 13.2813 2.65616C13.2813 2.6382 13.2764 2.62157 13.2759 2.6037C15.4741 2.03173 17.7742 1.97135 19.9993 2.42722C22.2244 2.88308 24.3155 3.84304 26.1116 5.23332C27.9078 6.6236 29.3613 8.40719 30.3604 10.447C31.3595 12.4868 31.8777 14.7286 31.875 16.9999C31.8789 19.9279 31.0114 22.7908 29.383 25.2242L28.7518 24.5931C28.6854 24.5266 28.6025 24.4789 28.5116 24.4549C28.4206 24.4309 28.325 24.4315 28.2344 24.4566C28.1438 24.4817 28.0615 24.5304 27.9958 24.5977C27.9302 24.665 27.8836 24.7485 27.8608 24.8398L27.1096 27.8449C27.0874 27.9339 27.0886 28.0272 27.1131 28.1156C27.1376 28.204 27.1845 28.2845 27.2494 28.3494C27.3143 28.4143 27.3948 28.4613 27.4833 28.4858C27.5717 28.5103 27.6649 28.5115 27.7539 28.4893L30.7591 27.738C30.8503 27.7153 30.9338 27.6687 31.0011 27.603C31.0685 27.5374 31.1171 27.4551 31.1422 27.3644C31.1673 27.2738 31.1679 27.1782 31.1439 27.0873C31.1199 26.9964 31.0723 26.9135 31.0058 26.847L30.1485 25.9897C31.7884 23.597 32.7436 20.8017 32.911 17.9058C33.0784 15.0098 32.4515 12.1232 31.0982 9.55741C29.7448 6.99168 27.7163 4.84434 25.2317 3.34721C22.7471 1.85009 19.9008 1.06006 17 1.06241C15.6433 1.06453 14.2924 1.23949 12.9799 1.58309C12.7912 1.26285 12.5216 0.997826 12.1983 0.814559C11.8749 0.631293 11.509 0.536222 11.1373 0.538872C10.7656 0.541522 10.4011 0.641799 10.0804 0.829658C9.75965 1.01752 9.49391 1.28636 9.30978 1.60926C9.12565 1.93216 9.02961 2.29777 9.03127 2.66947C9.03293 3.04117 9.13224 3.40591 9.31924 3.72715C9.50625 4.04839 9.77438 4.31485 10.0968 4.49984C10.4192 4.68482 10.7846 4.78184 11.1563 4.78116ZM28.3552 27.2436L28.6642 26.0078L29.591 26.9347L28.3552 27.2436ZM11.1563 1.59366C11.3664 1.59366 11.5718 1.65598 11.7466 1.77273C11.9213 1.88948 12.0575 2.05542 12.1379 2.24956C12.2183 2.44371 12.2393 2.65734 12.1983 2.86345C12.1573 3.06955 12.0562 3.25887 11.9076 3.40747C11.759 3.55606 11.5696 3.65725 11.3635 3.69825C11.1574 3.73925 10.9438 3.7182 10.7497 3.63779C10.5555 3.55737 10.3896 3.42119 10.2728 3.24646C10.1561 3.07173 10.0938 2.86631 10.0938 2.65616C10.094 2.37446 10.2061 2.10437 10.4053 1.90517C10.6045 1.70598 10.8746 1.59395 11.1563 1.59366Z" fill="white"/>
<path d="M3.70604 25.7934L4.59163 25.2067C2.97854 22.7693 2.12051 19.9102 2.12502 16.9874C2.12953 14.0646 2.99638 11.2081 4.61699 8.77573L5.24817 9.4069C5.31463 9.4734 5.39755 9.52108 5.48846 9.54505C5.57936 9.56903 5.67501 9.56844 5.76562 9.54336C5.85623 9.51827 5.93855 9.46958 6.00419 9.40227C6.06983 9.33496 6.11642 9.25142 6.13921 9.16021L6.89043 6.15507C6.91266 6.06605 6.91147 5.9728 6.88697 5.88439C6.86247 5.79597 6.81549 5.7154 6.75062 5.65053C6.68574 5.58565 6.60518 5.53867 6.51676 5.51417C6.42835 5.48967 6.33509 5.48848 6.24608 5.51071L3.24094 6.26196C3.14973 6.28474 3.06619 6.33134 2.99888 6.39697C2.93156 6.46261 2.88287 6.54493 2.85779 6.63555C2.8327 6.72616 2.83212 6.8218 2.85609 6.91271C2.88007 7.00362 2.92774 7.08654 2.99425 7.15299L3.8515 8.01024C2.05988 10.6232 1.08895 13.7115 1.06303 16.8796C1.03712 20.0477 1.9574 23.1515 3.70604 25.7934ZM5.64479 6.75637L5.33588 7.99218L4.40902 7.06532L5.64479 6.75637Z" fill="white"/>
</svg>
