<svg width="34" height="34" viewBox="0 0 34 34" fill="none" xmlns="http://www.w3.org/2000/svg">
<g clip-path="url(#clip0_166_1310)">
<path d="M33.1286 14.3473L30.7461 13.4303C30.4164 12.1575 29.912 10.9406 29.2436 9.80575L30.2804 7.47123C30.3697 7.27042 30.326 7.03534 30.1706 6.87995L27.1202 3.82965C26.9648 3.67419 26.7298 3.63056 26.5289 3.71975L24.1936 4.75701C23.0587 4.0887 21.8422 3.58434 20.5702 3.2547L19.6529 0.871648C19.5739 0.666586 19.3768 0.53125 19.157 0.53125H14.8433C14.6235 0.53125 14.4264 0.666586 14.3475 0.871648L13.4302 3.25477C12.1581 3.58441 10.9417 4.0887 9.80676 4.75708L7.47145 3.71981C7.27064 3.63069 7.03556 3.67426 6.88017 3.82971L3.8298 6.88009C3.67441 7.03548 3.63072 7.27049 3.71997 7.47137L4.7571 9.80641C4.08872 10.9414 3.58436 12.1579 3.25472 13.4303L0.871868 14.3475C0.666805 14.4264 0.531469 14.6234 0.531469 14.8432V19.1569C0.531469 19.3767 0.666805 19.5737 0.871868 19.6527L3.25439 20.5697C3.39863 21.1259 3.57779 21.675 3.78896 22.2103C2.7673 22.7265 1.91577 23.5271 1.33007 24.5415C0.535321 25.918 0.324215 27.5217 0.735602 29.057C1.44715 31.7126 3.85763 33.4683 6.48492 33.4681C6.9932 33.4681 7.5099 33.4024 8.02362 33.2647C9.71924 32.8104 11.0476 31.6632 11.7867 30.2093C12.323 30.4211 12.8732 30.6008 13.4302 30.7453L14.3475 33.1284C14.4264 33.3335 14.6235 33.4688 14.8433 33.4688H19.1571C19.3769 33.4688 19.5739 33.3335 19.6529 33.1284L20.5699 30.746C21.8427 30.4163 23.0595 29.9119 24.1945 29.2435L26.529 30.2804C26.7299 30.3697 26.9649 30.326 27.1203 30.1705L30.1705 27.1202C30.3259 26.9648 30.3696 26.7298 30.2804 26.5289L29.2432 24.1935C29.9115 23.0585 30.4159 21.8419 30.7454 20.5701L33.1285 19.6528C33.3336 19.5739 33.4689 19.3768 33.4689 19.157V14.8431C33.469 14.6233 33.3336 14.4262 33.1286 14.3473ZM7.74863 32.2383C5.14491 32.9359 2.45951 31.3853 1.76191 28.7819C1.06431 26.1783 2.61483 23.4927 5.21836 22.7951C5.63466 22.6836 6.06065 22.6279 6.48612 22.6279C6.95986 22.6279 7.43287 22.697 7.89021 22.8349C8.07761 22.8914 8.28088 22.8403 8.41927 22.702L9.73292 21.3883L9.7377 21.3835L18.0558 13.0655L21.0416 12.9586L20.9348 15.9445L20.5745 16.3048L18.7222 16.2131C18.5725 16.2061 18.4264 16.262 18.3203 16.368C18.2142 16.4741 18.1579 16.62 18.1654 16.7699L18.2397 18.2717L16.7379 18.1974C16.588 18.19 16.4421 18.2463 16.336 18.3524C16.2299 18.4585 16.1737 18.6044 16.1811 18.7543L16.2727 20.6065L12.6165 24.2627C12.615 24.2642 12.6136 24.2656 12.6122 24.267L11.2977 25.5815C11.1595 25.7197 11.1083 25.9226 11.1645 26.1098C11.1786 26.1568 11.1923 26.2039 11.205 26.2516C11.4795 27.276 11.4166 28.3375 11.0334 29.306C11.0329 29.3071 11.0323 29.3081 11.0318 29.3092C11.0309 29.3112 11.0303 29.3133 11.0294 29.3153C10.9416 29.5358 10.8375 29.7515 10.7167 29.9608C10.0639 31.0915 9.00982 31.9004 7.74863 32.2383ZM8.90404 17C8.90404 12.5358 12.5359 8.90388 17.0002 8.90388C21.4644 8.90388 25.0963 12.5358 25.0963 17C25.0963 21.4642 21.4644 25.0961 17.0002 25.0961C15.9358 25.0961 14.8775 24.8849 13.9006 24.4812L17.1906 21.1912C17.2967 21.0851 17.353 20.9391 17.3455 20.7893L17.2712 19.2875L18.773 19.3617C18.9224 19.369 19.0688 19.3129 19.1749 19.2068C19.281 19.1007 19.3373 18.9547 19.3298 18.8049L19.2555 17.3032L20.7572 17.3776C20.9079 17.385 21.0531 17.3287 21.1591 17.2227L21.8338 16.5479C21.9288 16.4529 21.9843 16.3255 21.9891 16.1912L22.1237 12.4262C22.129 12.2788 22.0728 12.1358 21.9685 12.0315C21.8642 11.9273 21.721 11.8708 21.5738 11.8763L17.8088 12.011C17.6746 12.0158 17.5472 12.0713 17.4522 12.1663L9.51896 20.0997C9.11514 19.1227 8.90404 18.0644 8.90404 17ZM32.4065 18.792L30.1058 19.6776C29.9423 19.7405 29.8203 19.88 29.7798 20.0504C29.458 21.4027 28.9242 22.6903 28.1931 23.8776C28.1013 24.0268 28.0889 24.2117 28.1599 24.3718L29.1613 26.6265L26.6269 29.161L24.373 28.16C24.2129 28.0888 24.0279 28.1012 23.8788 28.1932C22.6918 28.9242 21.4037 29.4582 20.0505 29.7801C19.8801 29.8207 19.7406 29.9426 19.6777 30.1061L18.7924 32.4062H15.208L14.3225 30.1055C14.2596 29.942 14.1202 29.8201 13.9497 29.7795C13.3501 29.6368 12.7577 29.4496 12.1823 29.2227C12.4775 28.2425 12.524 27.1753 12.2666 26.1151L13.0959 25.2859C14.3091 25.8573 15.6503 26.1587 17 26.1587C22.0501 26.1587 26.1587 22.0501 26.1587 17.0001C26.1587 11.95 22.0501 7.84145 17 7.84145C11.95 7.84145 7.8414 11.95 7.8414 17.0001C7.8414 18.3498 8.14282 19.6911 8.71425 20.9044L7.88556 21.733C6.92041 21.4985 5.90978 21.51 4.94323 21.7689C4.88712 21.7839 4.83207 21.8014 4.77662 21.8179C4.54978 21.2426 4.36265 20.6502 4.21987 20.0503C4.1793 19.8799 4.05738 19.7404 3.89388 19.6775L1.59397 18.7921V15.2079L3.89441 14.3224C4.05784 14.2594 4.17983 14.12 4.2204 13.9496C4.54227 12.5968 5.07618 11.309 5.80725 10.122C5.89909 9.97276 5.9115 9.78788 5.84038 9.62778L4.83904 7.37335L7.37357 4.83889L9.62826 5.8403C9.78837 5.91135 9.97324 5.899 10.1224 5.80709C11.3096 5.07609 12.5973 4.54225 13.9496 4.22038C14.12 4.17981 14.2596 4.05789 14.3225 3.89439L15.208 1.59375H18.7923L19.6779 3.89439C19.7407 4.05789 19.8802 4.17981 20.0507 4.22038C21.4032 4.54225 22.6908 5.07609 23.8779 5.80709C24.0271 5.89893 24.212 5.91135 24.3721 5.8403L26.6269 4.83889L29.1614 7.37335L28.1603 9.62725C28.0892 9.78735 28.1016 9.97229 28.1935 10.1214C28.9246 11.3085 29.4585 12.5965 29.7805 13.9497C29.8211 14.1201 29.943 14.2596 30.1065 14.3226L32.4065 15.2079V18.792ZM4.04131 26.9289C3.20598 27.7642 3.20598 29.1235 4.04131 29.9588C4.44599 30.3635 4.98408 30.5865 5.55636 30.5865C6.12859 30.5865 6.66668 30.3636 7.07136 29.9589C7.90668 29.1235 7.90668 27.7642 7.07136 26.9289C6.23603 26.0935 4.87676 26.0935 4.04131 26.9289ZM6.32004 29.2077C6.11604 29.4117 5.84483 29.524 5.55636 29.524C5.2679 29.524 4.99663 29.4116 4.79263 29.2076C4.37154 28.7865 4.37154 28.1013 4.79263 27.6802C5.0032 27.4696 5.27978 27.3644 5.55636 27.3644C5.83288 27.3644 6.10953 27.4696 6.32004 27.6802C6.74112 28.1013 6.74112 28.7865 6.32004 29.2077Z" fill="white"/>
</g>
<defs>
<clipPath id="clip0_166_1310">
<rect width="34" height="34" fill="white"/>
</clipPath>
</defs>
</svg>
