<svg width="39" height="39" viewBox="0 0 39 39" fill="none" xmlns="http://www.w3.org/2000/svg">
<circle cx="19.4097" cy="19.437" r="18.937" fill="#B57D2D"/>
<g clip-path="url(#clip0_105_645)">
<path d="M26.0596 11.2868H11.9502C11.0377 11.2892 10.1632 11.6505 9.51763 12.292C8.87211 12.9334 8.50802 13.8027 8.50488 14.7102V23.8468C8.50726 24.7548 8.87102 25.6249 9.51662 26.2669C10.1622 26.909 11.0372 27.2707 11.9502 27.2731H26.0596C26.9726 27.2707 27.8475 26.909 28.4931 26.2669C29.1387 25.6249 29.5025 24.7548 29.5049 23.8468V14.7102C29.5017 13.8027 29.1377 12.9334 28.4921 12.292C27.8466 11.6505 26.9721 11.2892 26.0596 11.2868ZM27.0394 16.4233C27.0397 16.4936 27.0223 16.5629 26.9887 16.6247C26.955 16.6866 26.9064 16.7391 26.8471 16.7774L19.7021 21.4876C19.633 21.5334 19.5519 21.5581 19.4688 21.5586C19.3857 21.5591 19.3043 21.5354 19.2346 21.4905L11.1656 16.3418C11.1044 16.3035 11.054 16.2504 11.0191 16.1875C10.9841 16.1246 10.9658 16.0539 10.9658 15.982V14.284C10.9659 14.2075 10.9867 14.1325 11.026 14.0668C11.0653 14.0011 11.1217 13.9472 11.1892 13.9107C11.2568 13.8742 11.3329 13.8564 11.4098 13.8593C11.4866 13.8622 11.5612 13.8856 11.6258 13.9271L19.2128 18.7617C19.2826 18.8067 19.3641 18.8304 19.4473 18.8299C19.5304 18.8294 19.6116 18.8047 19.6808 18.7589L26.3738 14.3537C26.4382 14.3108 26.5131 14.2862 26.5906 14.2824C26.668 14.2786 26.745 14.2958 26.8134 14.3322C26.8818 14.3685 26.9389 14.4227 26.9787 14.4888C27.0185 14.555 27.0395 14.6307 27.0394 14.7078V16.4233Z" fill="white" stroke="white" stroke-width="0.25" stroke-miterlimit="10"/>
</g>
<defs>
<clipPath id="clip0_105_645">
<rect width="21" height="20.8837" fill="white" transform="translate(8.50488 8.83667)"/>
</clipPath>
</defs>
</svg>
