<svg width="38" height="38" viewBox="0 0 38 38" fill="none" xmlns="http://www.w3.org/2000/svg">
<circle cx="18.9419" cy="18.937" r="18.937" fill="#69B482"/>
<path d="M13.3492 9.41522C13.8531 10.0128 16.0847 13.5174 15.9823 14.0999C15.9335 14.3734 15.6991 14.5826 15.0274 15.1425C14.6968 15.4015 14.3871 15.6858 14.1013 15.993C14.238 16.5559 14.4411 17.1007 14.7063 17.6161C15.696 19.6376 17.3386 21.2707 19.3717 22.2543C19.89 22.518 20.4378 22.72 21.0038 22.8559C21.3127 22.5717 21.5987 22.2638 21.8591 21.935C22.4221 21.2677 22.6311 21.0339 22.9075 20.9854C23.4946 20.8835 27.0174 23.1048 27.6182 23.6039C27.8671 23.8131 28.0342 24.0032 28.0342 24.2466C28.0342 24.9521 24.0659 28.1436 23.5517 28.1436C23.5097 28.1436 19.3786 28.0752 14.0704 22.8867C8.85293 17.6079 8.78418 13.4996 8.78418 13.4579C8.78418 12.9465 11.9934 9.00022 12.7029 9.00022C12.9477 9.00022 13.1388 9.16636 13.3492 9.41522Z" fill="white"/>
<path d="M19.0967 13.7861L19.0967 12.4187C20.5549 12.4203 21.9529 12.9971 22.984 14.0225C24.0151 15.0478 24.595 16.4381 24.5967 17.8882L23.2217 17.8882C23.2206 16.8006 22.7856 15.7578 22.0123 14.9888C21.2389 14.2197 20.1904 13.7871 19.0967 13.7861Z" fill="white"/>
<path d="M19.0967 10.3676L19.0967 9.00021C21.4662 9.00292 23.7379 9.94021 25.4134 11.6064C27.0889 13.2727 28.0315 15.5318 28.0342 17.8882L26.6592 17.8882C26.6568 15.8943 25.8593 13.9828 24.4416 12.5729C23.0238 11.1631 21.1017 10.3699 19.0967 10.3676Z" fill="white"/>
</svg>
