<svg width="28" height="12" viewBox="0 0 28 12" fill="none" xmlns="http://www.w3.org/2000/svg">
<path d="M0.558939 11.5H4.27745C4.38039 11.5 4.48139 11.472 4.56966 11.4191C4.65793 11.3661 4.73016 11.2902 4.77863 11.1994L7.98209 5.18854L8.83579 7.98484C8.8713 8.10125 8.94328 8.20317 9.0411 8.27557C9.13892 8.34798 9.25742 8.38704 9.37913 8.387H13.4044L16.0018 11.3092C16.0669 11.3809 16.1492 11.435 16.2409 11.4662C16.3326 11.4974 16.4307 11.5048 16.526 11.4877C16.6214 11.4707 16.7108 11.4296 16.786 11.3685C16.8611 11.3074 16.9195 11.2282 16.9556 11.1384L20.404 2.2824L22.2529 4.5839C22.3065 4.64956 22.374 4.70248 22.4505 4.73884C22.5271 4.7752 22.6108 4.79409 22.6955 4.79414C22.7803 4.7942 22.864 4.77541 22.9406 4.73915C23.0172 4.70289 23.0848 4.65005 23.1385 4.58447L25.0863 2.1615H27.1058C27.2549 2.15918 27.3971 2.09832 27.5018 1.99204C27.6064 1.88576 27.665 1.7426 27.665 1.59346C27.665 1.44431 27.6064 1.30115 27.5017 1.19488C27.3971 1.08861 27.2549 1.02775 27.1057 1.02545H24.8143C24.7293 1.02552 24.6455 1.04459 24.5689 1.08125C24.4923 1.11791 24.4249 1.17123 24.3716 1.23732L22.6961 3.32138L20.6742 0.805186C20.6118 0.727478 20.5301 0.667551 20.4372 0.631421C20.3443 0.595291 20.2436 0.58423 20.1451 0.599349C20.0466 0.614468 19.9538 0.655234 19.876 0.717555C19.7983 0.779876 19.7383 0.861558 19.702 0.9544L16.234 9.86029L14.0842 7.44175C14.0309 7.38174 13.9655 7.33371 13.8923 7.30082C13.8191 7.26792 13.7398 7.25092 13.6596 7.25093H9.7996L8.66854 3.54601C8.63425 3.43992 8.5697 3.34616 8.48283 3.27626C8.39596 3.20637 8.29055 3.16338 8.17957 3.1526C8.0686 3.14182 7.95689 3.16371 7.85819 3.21557C7.75949 3.26744 7.67809 3.34702 7.62402 3.44453L3.93658 10.364H0.558939C0.409876 10.3664 0.267731 10.4273 0.163167 10.5335C0.0586029 10.6398 0 10.7829 0 10.932C0 11.0811 0.0586029 11.2242 0.163167 11.3305C0.267731 11.4367 0.409876 11.4976 0.558939 11.5Z" fill="black"/>
</svg>
