<svg width="30" height="34" viewBox="0 0 30 34" fill="none" xmlns="http://www.w3.org/2000/svg">
<path d="M26.2976 14.7397C26.5251 15.4788 27.2142 16.0175 28.0269 16.0175C29.0244 16.0175 29.8359 15.206 29.8359 14.2085C29.8359 13.211 29.0244 12.3994 28.0269 12.3994C27.2143 12.3994 26.5251 12.9382 26.2976 13.6772H22.6664V11.7359H25.7005C25.8395 11.7359 25.973 11.6814 26.0723 11.5841L27.1637 10.5148C27.4204 10.6547 27.7146 10.7344 28.0269 10.7344C29.0244 10.7344 29.8359 9.92289 29.8359 8.9254C29.8359 7.92791 29.0244 7.11636 28.0269 7.11636C27.0294 7.11636 26.2179 7.92791 26.2179 8.9254C26.2179 9.22456 26.2913 9.50672 26.4204 9.75554L25.4836 10.6733H22.6664V9.60361C22.6664 9.57777 22.6654 9.55214 22.6645 9.52651L24.7942 8.73853C24.9125 8.69477 25.0114 8.61037 25.0731 8.5004L26.5499 5.87031C26.6734 5.89707 26.8017 5.91155 26.9332 5.91155C27.9306 5.91155 28.7421 5.1 28.7421 4.10251C28.7421 3.10502 27.9306 2.29347 26.9332 2.29347C25.9357 2.29347 25.1241 3.10502 25.1241 4.10251C25.1241 4.58535 25.3146 5.0243 25.624 5.34902L24.2423 7.80984L22.3498 8.51003C21.9857 7.93369 21.3433 7.54979 20.6126 7.54979H20.3881V5.50083C20.3882 2.50431 17.9502 0.0664062 14.9537 0.0664062C11.957 0.0664062 9.51911 2.50431 9.51911 5.50083V7.54979H9.29459C8.57568 7.54979 7.94229 7.9214 7.5752 8.48227L5.75766 7.80984L4.37601 5.34909C4.6854 5.02436 4.87592 4.58542 4.87592 4.10258C4.87592 3.10509 4.06437 2.29354 3.06688 2.29354C2.06939 2.29354 1.25791 3.10509 1.25791 4.10258C1.25791 5.10007 2.06939 5.91155 3.06688 5.91155C3.19836 5.91155 3.32653 5.89707 3.45018 5.87031L4.92692 8.5004C4.98868 8.61037 5.08756 8.69477 5.20582 8.73853L7.2439 9.49257C7.24191 9.52936 7.24078 9.56635 7.24078 9.60361V10.6733H4.5164L3.5796 9.75554C3.7087 9.50672 3.78214 9.22456 3.78214 8.9254C3.78214 7.92791 2.97059 7.11636 1.9731 7.11636C0.975613 7.11636 0.164129 7.92791 0.164129 8.9254C0.164129 9.92289 0.97568 10.7344 1.9731 10.7344C2.28548 10.7344 2.57959 10.6547 2.83632 10.5148L3.92777 11.5841C4.02705 11.6814 4.16052 11.7359 4.29958 11.7359H7.24085V13.6772H3.70245C3.47495 12.9382 2.78585 12.3994 1.9731 12.3994C0.975613 12.3994 0.164129 13.211 0.164129 14.2085C0.164129 15.206 0.97568 16.0175 1.9731 16.0175C2.78578 16.0175 3.47488 15.4788 3.70245 14.7397H7.24085V16.6811H4.29951C4.16046 16.6811 4.02698 16.7356 3.9277 16.8329L2.83625 17.9021C2.57959 17.7621 2.28541 17.6825 1.97304 17.6825C0.975547 17.6825 0.164062 18.4941 0.164062 19.4916C0.164062 20.489 0.975613 21.3006 1.97304 21.3006C2.97052 21.3006 3.78207 20.489 3.78207 19.4916C3.78207 19.1924 3.70863 18.9102 3.57954 18.6614L4.51633 17.7436H7.24071V18.8134C7.24071 18.8827 7.2443 18.9511 7.25101 19.0187L5.22707 19.671C5.09964 19.7121 4.99239 19.7998 4.92685 19.9166L3.45011 22.5466C3.32646 22.5199 3.1983 22.5054 3.06681 22.5054C2.06932 22.5054 1.25784 23.3169 1.25784 24.3144C1.25784 25.3119 2.06939 26.1234 3.06681 26.1234C4.0643 26.1234 4.87585 25.3119 4.87585 24.3144C4.87585 23.8315 4.68533 23.3926 4.37595 23.0679L5.75129 20.6183L7.62919 20.0131C8.00252 20.5299 8.60974 20.8672 9.29459 20.8672H13.2211V23.545L12.0252 22.0191C11.2414 21.0188 10.2085 20.971 9.58067 21.3497C8.94802 21.7312 8.53729 22.6252 9.0459 23.7624C9.9309 25.7413 10.7609 27.109 11.4279 28.208C12.2975 29.6412 12.8741 30.5914 13.0308 31.9359V33.4023C13.0308 33.6957 13.2687 33.9336 13.5621 33.9336H21.9669C22.2603 33.9336 22.4981 33.6957 22.4981 33.4023V32.0684C23.6917 30.2403 23.8732 27.4948 23.8733 25.997L23.8734 24.3695C23.8734 23.4156 23.0973 22.6395 22.1434 22.6395C21.8787 22.6395 21.6276 22.6993 21.403 22.806C21.1888 22.0938 20.527 21.5735 19.7459 21.5735C19.4846 21.5735 19.2365 21.6318 19.0141 21.736C18.9169 21.3903 18.7139 21.0891 18.4434 20.8671H20.6126C21.3081 20.8671 21.9236 20.5193 22.2953 19.9887L24.2487 20.6183L25.624 23.0678C25.3146 23.3925 25.124 23.8315 25.124 24.3143C25.124 25.3118 25.9356 26.1234 26.9331 26.1234C27.9306 26.1234 28.7421 25.3118 28.7421 24.3143C28.7421 23.3168 27.9305 22.5053 26.9331 22.5053C26.8016 22.5053 26.6734 22.5198 26.5498 22.5466L25.073 19.9164C25.0075 19.7997 24.9002 19.712 24.7728 19.6709L22.6583 18.9894C22.6633 18.9313 22.6664 18.8727 22.6664 18.8133V17.7435H25.4836L26.4204 18.6613C26.2913 18.9101 26.2179 19.1923 26.2179 19.4914C26.2179 20.4889 27.0294 21.3005 28.0269 21.3005C29.0244 21.3005 29.8359 20.4889 29.8359 19.4914C29.8359 18.4939 29.0244 17.6824 28.0269 17.6824C27.7146 17.6824 27.4204 17.762 27.1637 17.902L26.0723 16.8327C25.973 16.7354 25.8395 16.6809 25.7005 16.6809H22.6664V14.7396H26.2976V14.7397ZM28.0269 13.4619C28.4385 13.4619 28.7734 13.7968 28.7734 14.2085C28.7734 14.6201 28.4385 14.955 28.0269 14.955C27.6153 14.955 27.2804 14.6201 27.2804 14.2085C27.2804 13.7968 27.6153 13.4619 28.0269 13.4619ZM28.0269 8.17886C28.4385 8.17886 28.7734 8.51375 28.7734 8.9254C28.7734 9.33698 28.4385 9.67187 28.0269 9.67187C27.6153 9.67187 27.2804 9.33698 27.2804 8.9254C27.2804 8.51375 27.6153 8.17886 28.0269 8.17886ZM26.9332 3.35604C27.3447 3.35604 27.6796 3.69093 27.6796 4.10258C27.6796 4.51423 27.3447 4.84912 26.9332 4.84912C26.5215 4.84912 26.1866 4.51423 26.1866 4.10258C26.1866 3.69093 26.5215 3.35604 26.9332 3.35604ZM2.32041 4.10258C2.32041 3.69093 2.65529 3.35604 3.06688 3.35604C3.47853 3.35604 3.81342 3.69093 3.81342 4.10258C3.81342 4.51423 3.47853 4.84905 3.06688 4.84905C2.65529 4.84905 2.32041 4.51423 2.32041 4.10258ZM1.9731 9.67187C1.56152 9.67187 1.22663 9.33698 1.22663 8.9254C1.22663 8.51375 1.56152 8.17886 1.9731 8.17886C2.38475 8.17886 2.71964 8.51375 2.71964 8.9254C2.71964 9.33698 2.38475 9.67187 1.9731 9.67187ZM1.9731 14.955C1.56152 14.955 1.22663 14.6201 1.22663 14.2085C1.22663 13.7968 1.56152 13.4619 1.9731 13.4619C2.38475 13.4619 2.71964 13.7968 2.71964 14.2085C2.71964 14.6201 2.38475 14.955 1.9731 14.955ZM1.9731 20.2381C1.56152 20.2381 1.22663 19.9032 1.22663 19.4916C1.22663 19.0799 1.56152 18.745 1.9731 18.745C2.38475 18.745 2.71964 19.0799 2.71964 19.4916C2.71964 19.9032 2.38475 20.2381 1.9731 20.2381ZM3.06688 25.0609C2.65529 25.0609 2.32041 24.726 2.32041 24.3143C2.32041 23.9027 2.65529 23.5678 3.06688 23.5678C3.47853 23.5678 3.81342 23.9027 3.81342 24.3143C3.81342 24.726 3.47853 25.0609 3.06688 25.0609ZM27.6796 24.3144C27.6796 24.726 27.3447 25.0609 26.9332 25.0609C26.5215 25.0609 26.1866 24.726 26.1866 24.3144C26.1866 23.9028 26.5215 23.5679 26.9332 23.5679C27.3447 23.5678 27.6796 23.9027 27.6796 24.3144ZM28.0269 18.745C28.4385 18.745 28.7734 19.0799 28.7734 19.4916C28.7734 19.9032 28.4385 20.2381 28.0269 20.2381C27.6153 20.2381 27.2804 19.9032 27.2804 19.4916C27.2804 19.0799 27.6153 18.745 28.0269 18.745ZM10.5816 5.50083C10.5816 3.09015 12.5429 1.12891 14.9537 1.12891C17.3644 1.12891 19.3257 3.09015 19.3257 5.50083V7.54979H18.0576V5.50083C18.0576 3.78934 16.6652 2.39687 14.9537 2.39687C13.2421 2.39687 11.8496 3.78927 11.8496 5.50083V7.54979H10.5816V5.50083ZM16.9951 7.54986H12.9121V5.50083C12.9121 4.37518 13.8279 3.45937 14.9537 3.45937C16.0793 3.45937 16.9951 4.37518 16.9951 5.50083V7.54986ZM15.6828 14.2764C15.4604 14.1722 15.2125 14.1135 14.951 14.1135C14.6908 14.1135 14.4439 14.1716 14.2223 14.275C13.8579 14.0318 13.6362 13.6242 13.6362 13.1801C13.6362 12.4538 14.2272 11.8628 14.9536 11.8628C15.68 11.8628 16.2709 12.4538 16.2709 13.1801C16.271 13.625 16.0484 14.0334 15.6828 14.2764ZM14.0933 32.8711V32.4369H21.4356V32.8711H14.0933ZM19.7459 22.6361C20.114 22.6361 20.4135 22.9355 20.4135 23.3035V24.9531C20.4135 25.2465 20.6513 25.4843 20.9447 25.4843C21.2381 25.4843 21.476 25.2465 21.476 24.9531V24.3695C21.476 24.0015 21.7754 23.702 22.1435 23.702C22.5115 23.702 22.8109 24.0014 22.8109 24.3694L22.8109 25.9969C22.8108 27.0833 22.6962 29.7076 21.6788 31.3744H14.0193C13.7732 30.0281 13.1576 29.0105 12.3361 27.6567C11.6846 26.583 10.8737 25.2467 10.0158 23.3285C9.8016 22.8498 9.84616 22.4302 10.1293 22.2594C10.3775 22.1098 10.8014 22.1799 11.1889 22.6743L13.3342 25.4117C13.4739 25.5901 13.7114 25.66 13.9256 25.5861C14.1399 25.5122 14.2836 25.3105 14.2836 25.084V15.8435C14.2836 15.4755 14.583 15.176 14.9511 15.176C15.3191 15.176 15.6185 15.4754 15.6185 15.8435L15.6185 24.5234C15.6185 24.8167 15.8563 25.0546 16.1497 25.0546C16.4431 25.0546 16.681 24.8167 16.681 24.5234V22.2039C16.681 21.8358 16.9804 21.5363 17.3485 21.5363C17.7166 21.5363 18.016 21.8358 18.016 22.2039V24.9531C18.016 25.2465 18.2539 25.4843 18.5472 25.4843C18.8406 25.4843 19.0785 25.2465 19.0785 24.9531V23.3035C19.0784 22.9355 19.3778 22.6361 19.7459 22.6361ZM21.6039 18.8134C21.6039 19.3599 21.1593 19.8046 20.6126 19.8046H16.6809L16.681 15.8435C16.681 15.5436 16.6042 15.2614 16.4693 15.0153C17.0113 14.5685 17.3334 13.9005 17.3334 13.1801C17.3334 11.8679 16.2659 10.8003 14.9536 10.8003C13.6413 10.8003 12.5737 11.8679 12.5737 13.1801C12.5737 13.899 12.8945 14.5655 13.4344 15.0123C13.2985 15.2592 13.221 15.5424 13.221 15.8435V19.8046H9.29453C8.74793 19.8046 8.30321 19.3599 8.30321 18.8134V9.60361C8.30321 9.05702 8.74787 8.61236 9.29453 8.61236H20.6127C21.1593 8.61236 21.604 9.05702 21.604 9.60361V18.8134H21.6039Z" fill="white"/>
</svg>
