<svg width="177" height="76" viewBox="0 0 177 76" fill="none" xmlns="http://www.w3.org/2000/svg">
<g clip-path="url(#clip0_105_579)">
<path d="M173.093 0H120.953C118.373 0 117.693 1.24 117.693 3.26V10.21C116.973 9.15 116.173 8.17 115.283 7.31C110.563 2.58 105.173 0.11 92.9228 0.11H64.6028C62.0228 0.11 61.4528 1.35 61.4528 3.37V48.02C60.4028 43.11 57.8528 39.5 54.3128 36.99C53.8328 36.65 53.7828 35.94 54.2228 35.54C57.6628 32.38 59.5528 27.84 59.5528 21.5C59.5628 5.72 50.2428 0 31.2928 0C9.53277 0 0.78277 7.09 1.62277 24.8C1.67277 25.91 2.59277 26.79 3.70277 26.79H17.2428C18.4328 26.79 19.3728 25.8 19.3228 24.61C19.0928 18.42 22.6528 17.04 30.0128 17.04C37.3728 17.04 41.1328 18.2 41.1328 23.5C41.1328 28.8 39.4728 31.03 30.4528 31.31C29.3228 31.34 28.4228 32.27 28.4228 33.39V42.5C28.4228 43.64 29.3328 44.57 30.4728 44.59C44.4028 44.81 44.3028 47.33 44.3028 51.99C44.3028 56.65 39.6428 58.45 30.6428 58.45C23.6028 58.45 18.7828 57.17 18.2628 51.99C18.1528 50.91 17.2728 50.08 16.1828 50.08H2.57277C1.44277 50.08 0.51277 50.98 0.48277 52.1C0.0627699 69.28 11.6128 74.84 28.2228 75.43L42.3128 61.2C43.5028 60 45.3928 59.88 46.7128 60.92L52.9428 65.8C54.1428 66.74 55.8828 66.54 56.8328 65.35L61.4128 59.64C61.4228 59.57 61.4428 59.5 61.4628 59.43V59.58L74.6628 43.12C76.8228 40.43 80.9628 40.58 82.9228 43.42L102.713 72.14C103.863 73.36 105.113 73.91 107.093 73.91H120.353C122.483 73.91 123.053 71.89 122.043 70.31L106.203 47.27C113.173 44.91 121.823 36.71 121.823 24.91C121.823 21.66 121.333 18.57 120.423 15.79C120.593 15.8 120.773 15.81 120.973 15.81H138.273V70.64C138.273 73.22 139.513 73.9 141.533 73.9H152.653C154.673 73.9 155.913 73.23 155.913 70.64V15.84H173.103C175.683 15.84 176.363 14.6 176.363 12.58V3.26C176.363 1.24 175.693 0 173.103 0H173.093ZM99.5328 30.63C99.5328 31.42 99.1128 32.14 98.4328 32.53L95.2828 34.34C94.3428 34.88 93.1528 34.65 92.4728 33.81L83.1828 22.21C82.8728 21.82 82.7028 21.34 82.7028 20.84V17.04C82.7028 15.83 83.6828 14.84 84.9028 14.84H94.0328C94.7028 14.84 95.3328 15.15 95.7528 15.67L99.0528 19.82C99.3628 20.21 99.5328 20.69 99.5328 21.19V30.62V30.63Z" fill="url(#paint0_linear_105_579)"/>
</g>
<defs>
<linearGradient id="paint0_linear_105_579" x1="-6.66723" y1="37.72" x2="199.133" y2="37.72" gradientUnits="userSpaceOnUse">
<stop stop-color="#7D491E"/>
<stop offset="1" stop-color="#C88F2F"/>
</linearGradient>
<clipPath id="clip0_105_579">
<rect width="175.87" height="75.44" fill="white" transform="translate(0.472656)"/>
</clipPath>
</defs>
</svg>
