<svg width="557" height="242" viewBox="0 0 557 242" fill="none" xmlns="http://www.w3.org/2000/svg">
<path d="M90.436 242H89.4194C27.2134 239.729 -1.17226 215.647 0.00069664 166.189C0.117993 161.412 4.10606 157.535 8.9152 157.535H51.7283C56.3028 157.535 60.1345 161.02 60.6037 165.641C61.8939 178.563 72.4897 183.85 97.1609 183.85C133.523 183.85 137.706 173.59 137.706 165.876C137.706 151.857 137.706 145.592 96.5745 144.965C91.7653 144.887 87.8164 140.893 87.8164 136.076V107.412C87.8164 102.557 91.6089 98.68 96.4572 98.5234C124.647 97.6619 127.736 90.77 127.736 76.3205C127.736 62.7324 119.838 58.3467 95.1669 58.3467C80.4658 58.3467 72.3724 60.2263 68.0715 64.6904C64.9827 67.9014 63.6534 72.6787 63.9271 79.7273C64.0053 82.1943 63.1451 84.5046 61.4247 86.2667C59.7435 88.0289 57.4758 89.0078 55.0517 89.0078H12.5123C7.74224 89.0078 3.83237 85.2878 3.63687 80.5104C2.42482 54.5875 7.74224 35.713 19.941 22.9082C34.7985 7.2839 59.9781 0.000401251 99.155 0.000401251C163.042 0.000401251 190.294 20.9111 190.294 69.9376C190.294 89.9868 184.586 105.024 172.817 115.831C172.621 115.988 172.621 116.184 172.621 116.301C172.621 116.419 172.661 116.615 172.856 116.732C181.106 122.567 187.362 130.007 191.545 138.935V12.9619C191.545 7.0881 192.953 0.352828 203.783 0.352828H292.694C333.161 0.352828 350.208 9.28098 364.557 23.6522C365.769 24.8269 366.942 26.1192 368.115 27.4506V12.5703C368.115 7.16642 369.405 -0.0387573 380.705 -0.0387573H544.45C555.71 -0.0387573 557.04 7.12726 557.04 12.5703V41.9001C557.04 47.304 555.75 54.5091 544.45 54.5091H492.801V224.614C492.801 235.892 485.606 237.223 480.211 237.223H445.296C439.9 237.223 432.706 235.931 432.706 224.614V54.5091H382.19C384.536 62.7716 385.748 71.5823 385.748 80.7845C385.748 119.552 358.184 144.104 338.009 152.249L386.061 222.225C388.29 225.71 388.642 229.744 386.96 232.837C385.436 235.618 382.503 237.223 378.867 237.223H337.227C330.541 237.223 325.927 235.343 321.783 230.919L259.421 140.306C256.918 136.664 252.969 134.471 248.551 134.314C244.289 134.275 240.028 136.037 237.252 139.483L181.262 209.381C177.47 214.119 170.51 214.903 165.779 211.183L146.23 195.832C142.985 193.287 138.41 193.6 135.517 196.498L90.5533 241.961L90.436 242ZM8.9152 162.234C6.64747 162.234 4.77074 164.075 4.69254 166.307C3.55868 212.357 30.224 234.913 88.5201 237.262L132.037 193.248C136.612 188.627 143.884 188.197 148.967 192.191L168.516 207.541C171.253 209.695 175.28 209.225 177.47 206.523L191.506 188.98L195.26 171.202L191.545 153.894C188.535 139.797 181.301 128.597 170.08 120.648C168.79 119.708 167.969 118.259 167.851 116.654C167.734 115.048 168.36 113.521 169.533 112.425C180.285 102.557 185.485 88.6554 185.485 69.9768C185.485 23.613 160.423 4.69943 99.0377 4.69943C61.2292 4.69943 37.1445 11.513 23.2253 26.1192C11.9649 37.9451 7.03846 55.6447 8.21142 80.2363C8.32872 82.5075 10.1664 84.2697 12.395 84.2697H54.9344C56.0682 84.2697 57.163 83.7998 57.945 82.9774C58.766 82.1551 59.157 81.0195 59.1179 79.8447C58.8051 71.5823 60.6037 65.5127 64.5917 61.4011C69.9092 55.8797 78.7455 53.6085 95.0496 53.6085C118.665 53.6085 132.311 57.3286 132.311 76.2813C132.311 95.2341 123.592 102.322 96.4963 103.183C94.1894 103.262 92.3909 105.102 92.3909 107.373V136.037C92.3909 138.308 94.2285 140.227 96.5354 140.266C140.326 140.932 142.281 148.96 142.281 165.563C142.281 186.16 116.476 188.51 97.0436 188.51C77.6116 188.51 57.8277 185.847 55.8336 166.111C55.599 163.879 53.8005 162.195 51.6501 162.195H8.9152V162.234ZM375.661 49.4968L379.18 49.771C379.649 49.771 380.157 49.8493 380.705 49.8493H437.398V224.653C437.398 231.349 440.056 232.563 445.296 232.563H480.211C485.45 232.563 488.109 231.349 488.109 224.653V49.8101H544.45C551.136 49.8101 552.348 47.1473 552.348 41.9001V12.6095C552.348 7.36221 551.136 4.69943 544.45 4.69943H380.705C374.019 4.69943 372.807 7.36221 372.807 12.6095V42.135L368.506 35.7522C366.277 32.4629 363.853 29.526 361.273 26.9807C347.393 13.0794 331.714 5.0127 292.694 5.0127H203.783C197.332 5.0127 196.237 7.44053 196.237 12.9227V175.47L196.159 175.039V183.145L233.537 136.546C237.252 131.926 242.804 129.459 248.668 129.615C254.572 129.85 259.89 132.748 263.252 137.643L325.38 227.982C328.43 231.193 331.792 232.524 337.188 232.524H378.828C380.157 232.524 381.956 232.172 382.816 230.605C383.676 229.039 383.402 226.807 382.151 224.849L330.658 149.899L333.591 148.92C356.581 141.128 381.057 114.578 381.057 80.8237C381.057 70.9557 379.61 61.5185 376.756 52.8645L375.661 49.536V49.4968ZM296.642 113.639C293.906 113.639 291.247 112.425 289.448 110.153L260.281 73.6968C258.99 72.0522 258.248 70.0159 258.248 67.9014V55.958C258.248 50.8674 262.392 46.7166 267.475 46.7166H296.173C298.988 46.7166 301.647 48.0088 303.407 50.2017L313.768 63.2415C315.058 64.8862 315.762 66.9224 315.762 68.9978V98.68C315.762 101.969 314.002 105.063 311.109 106.708L301.217 112.425C299.77 113.247 298.167 113.678 296.603 113.678L296.642 113.639ZM267.514 51.3765C265.012 51.3765 262.939 53.4127 262.939 55.958V67.9014C262.939 68.9195 263.291 69.9376 263.956 70.7599L293.124 107.217C294.531 108.979 296.994 109.449 298.949 108.313L308.841 102.596C310.249 101.774 311.109 100.286 311.109 98.6409V68.9587C311.109 67.9405 310.757 66.9224 310.132 66.1392L299.77 53.0994C298.91 52.003 297.62 51.3765 296.212 51.3765H267.514Z" fill="url(#paint0_linear_1_243)"/>
<defs>
<linearGradient id="paint0_linear_1_243" x1="278.503" y1="-0.0387573" x2="278.503" y2="242" gradientUnits="userSpaceOnUse">
<stop stop-color="#B57D2D"/>
<stop offset="1" stop-color="#D9D9D9" stop-opacity="0.04"/>
</linearGradient>
</defs>
</svg>
