<svg xmlns="http://www.w3.org/2000/svg" width="333.04" height="142.981" viewBox="0 0 333.04 142.981">
  <path id="logoPattern" d="M326.846,0H228.122c-4.885,0-6.172,2.35-6.172,6.179V19.354a34.822,34.822,0,0,0-4.564-5.5C208.449,4.891,198.244.209,175.049.209H121.427c-4.885,0-5.965,2.35-5.965,6.179V91.024a33.3,33.3,0,0,0-13.519-20.908,1.775,1.775,0,0,1-.17-2.749c6.513-5.99,10.092-14.6,10.092-26.613C111.884,10.843,94.237,0,58.356,0,17.155,0,.587,13.44,2.178,47.01a3.954,3.954,0,0,0,3.938,3.772H31.753a3.947,3.947,0,0,0,3.938-4.132C35.256,34.916,42,32.3,55.932,32.3s21.055,2.2,21.055,12.245-3.143,14.273-20.222,14.8a3.956,3.956,0,0,0-3.844,3.943V80.561A3.954,3.954,0,0,0,56.8,84.523C83.179,84.94,82.99,89.716,82.99,98.55s-8.824,12.245-25.864,12.245c-13.33,0-22.456-2.426-23.441-12.245a3.971,3.971,0,0,0-3.938-3.62H3.976A3.956,3.956,0,0,0,.019,98.758c-.8,32.566,21.074,43.1,52.524,44.223l26.679-26.973a6.259,6.259,0,0,1,8.331-.531l11.8,9.25a5.27,5.27,0,0,0,7.366-.853l8.672-10.823a2.98,2.98,0,0,1,.094-.4v.284l24.994-31.2a9.75,9.75,0,0,1,15.64.569l37.471,54.44c2.177,2.312,4.544,3.355,8.293,3.355h25.107c4.033,0,5.112-3.829,3.2-6.824L200.194,89.6c13.2-4.473,29.576-20.017,29.576-42.384a55.776,55.776,0,0,0-2.651-17.287c.322.019.662.038,1.041.038h32.757V133.9c0,4.89,2.348,6.179,6.172,6.179h21.055c3.825,0,6.173-1.27,6.173-6.179V30.026h32.548c4.885,0,6.173-2.351,6.173-6.179V6.18c0-3.829-1.269-6.179-6.173-6.179ZM187.565,58.061a4.143,4.143,0,0,1-2.083,3.6l-5.964,3.431a4.171,4.171,0,0,1-5.321-1L156.607,42.1a4.168,4.168,0,0,1-.909-2.6V32.3a4.168,4.168,0,0,1,4.166-4.17h17.287a4.192,4.192,0,0,1,3.256,1.573l6.249,7.867a4.168,4.168,0,0,1,.909,2.6V58.061Z" transform="translate(0.002 0)" fill="#fff"/>
</svg>
